<svg xmlns="http://www.w3.org/2000/svg" width="300" height="150" viewBox="0 0 300 150"><rect width="100%" height="100%" fill="#DDDDDD"/><path fill="#999999" d="M62.025 64.4v17.35h-3.24V64.4h3.24Zm6.37 17.35h-2.96V69.44h1.81q.58 0 .76.54l.19.91q.32-.36.68-.66.35-.3.75-.52.41-.21.87-.34.46-.12 1.01-.12 1.17 0 1.92.63t1.12 1.67q.29-.61.72-1.05.43-.44.95-.71.51-.28 1.09-.41.59-.13 1.17-.13 1.02 0 1.82.31.79.31 1.33.91.54.6.82 1.46.28.87.28 1.98v7.84h-2.96v-7.84q0-1.17-.52-1.77-.51-.59-1.51-.59-.46 0-.85.16-.39.15-.68.45-.29.29-.46.73-.17.45-.17 1.02v7.84h-2.98v-7.84q0-1.23-.49-1.8-.5-.56-1.46-.56-.65 0-1.21.32-.56.32-1.04.87v9.01Zm23.64-3.18v-2.08q-1.28.06-2.16.23-.87.16-1.4.41-.53.25-.76.59-.22.33-.22.73 0 .78.46 1.12.46.33 1.2.33.92 0 1.58-.33.67-.33 1.3-1Zm-6.26-6.47-.53-.95q2.13-1.94 5.11-1.94 1.08 0 1.94.35.85.36 1.44.99.58.63.89 1.5.31.88.31 1.92v7.78h-1.35q-.42 0-.65-.13-.22-.12-.36-.51l-.26-.88q-.47.42-.91.73-.45.32-.93.54-.48.21-1.02.33-.55.11-1.21.11-.78 0-1.44-.21-.66-.21-1.14-.63-.48-.42-.74-1.04-.27-.63-.27-1.45 0-.47.16-.93.16-.47.51-.89.35-.42.92-.79.56-.37 1.38-.65.83-.27 1.92-.45 1.09-.17 2.49-.21v-.72q0-1.23-.52-1.83-.53-.59-1.53-.59-.72 0-1.19.17-.48.17-.84.38t-.65.37q-.29.17-.65.17-.32 0-.53-.16-.22-.16-.35-.38Zm16.44 3.19q.55 0 .96-.15.41-.15.68-.41.27-.26.41-.64.13-.37.13-.81 0-.91-.54-1.45-.55-.53-1.64-.53-1.09 0-1.64.53-.54.54-.54 1.45 0 .43.13.8.14.37.41.64.27.27.69.42.41.15.95.15Zm3.35 7.01q0-.36-.22-.59-.21-.22-.59-.35-.37-.13-.87-.19-.49-.06-1.05-.09t-1.15-.05q-.6-.02-1.16-.1-.49.28-.8.65-.31.37-.31.87 0 .32.17.6.16.28.51.49.36.2.92.32.56.11 1.38.11.83 0 1.43-.13.6-.12.99-.34.39-.23.57-.53.18-.31.18-.67Zm-.59-12.44h3.54v1.1q0 .53-.64.65l-1.1.2q.25.64.25 1.4 0 .91-.36 1.65-.37.73-1.02 1.25t-1.53.8q-.88.28-1.9.28-.36 0-.7-.04-.33-.03-.66-.09-.57.35-.57.78 0 .37.34.54.34.18.91.25.56.07 1.28.09.72.02 1.48.08.75.06 1.47.21t1.29.47q.56.33.9.88.34.56.34 1.44 0 .81-.4 1.58t-1.16 1.37q-.76.6-1.87.97-1.11.36-2.53.36-1.39 0-2.42-.27-1.04-.27-1.72-.72-.68-.45-1.02-1.04-.34-.58-.34-1.22 0-.86.53-1.45.52-.58 1.43-.93-.49-.25-.78-.67-.29-.42-.29-1.1 0-.28.1-.57.11-.3.3-.58.2-.29.5-.55.3-.26.71-.46-.94-.51-1.47-1.35-.53-.84-.53-1.96 0-.92.36-1.65.37-.74 1.02-1.26.66-.53 1.55-.8.89-.28 1.95-.28.79 0 1.49.16.69.17 1.27.48Zm7.75 4.32h5.59q0-.58-.16-1.09-.16-.51-.48-.89-.33-.39-.83-.61-.49-.22-1.15-.22-1.29 0-2.03.73-.73.73-.94 2.08Zm7.56 1.79h-7.62q.07.94.34 1.63.26.69.69 1.14.44.45 1.03.68.59.22 1.31.22.72 0 1.25-.17.52-.17.91-.37.39-.21.68-.37.3-.17.57-.17.37 0 .55.27l.86 1.08q-.5.58-1.11.97-.61.39-1.28.62-.66.24-1.35.33-.69.1-1.34.1-1.28 0-2.39-.43-1.1-.42-1.92-1.26-.81-.83-1.28-2.06t-.47-2.85q0-1.26.41-2.37t1.17-1.93q.76-.82 1.86-1.3 1.1-.48 2.48-.48 1.16 0 2.14.37.99.37 1.7 1.08.7.72 1.11 1.76.4 1.03.4 2.37 0 .67-.15.9-.14.24-.55.24Zm21-11.57h2.85v17.35h-1.66q-.38 0-.64-.13-.26-.12-.5-.42l-9.06-11.57q.07.79.07 1.46v10.66h-2.84V64.4h1.69q.2 0 .35.02.15.01.27.07.11.05.22.15.11.11.24.27l9.1 11.62q-.04-.42-.06-.83-.03-.41-.03-.75V64.4Zm11.69 4.85q1.37 0 2.49.44t1.92 1.26q.8.82 1.23 1.99.43 1.18.43 2.63 0 1.46-.43 2.64-.43 1.18-1.23 2-.8.83-1.92 1.28-1.12.44-2.49.44-1.38 0-2.51-.44-1.13-.45-1.92-1.28-.8-.82-1.24-2-.44-1.18-.44-2.64 0-1.45.44-2.63.44-1.17 1.24-1.99.79-.82 1.92-1.26 1.13-.44 2.51-.44Zm0 10.4q1.54 0 2.27-1.03.74-1.03.74-3.03 0-1.99-.74-3.03-.73-1.05-2.27-1.05-1.56 0-2.31 1.05t-.75 3.03q0 1.98.75 3.02t2.31 1.04Zm12.44 2.29q-1.6 0-2.46-.9-.86-.91-.86-2.51v-6.87h-1.26q-.24 0-.41-.16-.17-.15-.17-.47v-1.17l1.98-.33.63-3.36q.06-.24.23-.37.16-.13.43-.13h1.53v3.88h3.29v2.11h-3.29v6.67q0 .58.29.9.28.32.77.32.28 0 .46-.06.19-.07.33-.14.13-.07.24-.14.11-.06.22-.06.13 0 .21.06.09.07.18.2l.89 1.44q-.65.54-1.49.82-.84.27-1.74.27Zm22.07-14.97h-7.7v5.13h6.5v2.58h-6.5v7.07h-3.24V64.4h10.94v2.57Zm7.62 2.28q1.37 0 2.49.44t1.92 1.26q.8.82 1.23 1.99.43 1.18.43 2.63 0 1.46-.43 2.64-.43 1.18-1.23 2-.8.83-1.92 1.28-1.12.44-2.49.44-1.38 0-2.51-.44-1.12-.45-1.92-1.28-.8-.82-1.24-2-.44-1.18-.44-2.64 0-1.45.44-2.63.44-1.17 1.24-1.99.8-.82 1.92-1.26 1.13-.44 2.51-.44Zm0 10.4q1.54 0 2.28-1.03.73-1.03.73-3.03 0-1.99-.73-3.03-.74-1.05-2.28-1.05-1.56 0-2.31 1.05t-.75 3.03q0 1.98.75 3.02t2.31 1.04Zm15.99-10.21h2.96v12.31h-1.81q-.59 0-.75-.54l-.2-.98q-.76.76-1.67 1.24-.91.47-2.15.47-1 0-1.78-.34-.77-.34-1.3-.97-.53-.62-.8-1.48t-.27-1.89v-7.82h2.97v7.82q0 1.13.52 1.75.52.62 1.56.62.77 0 1.44-.35.68-.34 1.28-.94v-8.9Zm8.46.54.2.97q.37-.37.79-.69.41-.32.87-.54.46-.22.99-.35.53-.12 1.15-.12 1.01 0 1.79.34t1.3.96q.53.62.8 1.47.27.86.27 1.89v7.84h-2.97v-7.84q0-1.12-.51-1.74-.52-.62-1.58-.62-.76 0-1.44.35-.67.35-1.27.95v8.9h-2.96V69.44h1.81q.58 0 .76.54Zm18.69 8.12v-5.52q-.5-.61-1.1-.86-.59-.25-1.27-.25t-1.22.25q-.54.25-.92.76t-.59 1.3q-.2.78-.2 1.85 0 1.08.17 1.83.18.75.5 1.22.32.48.79.69.47.21 1.05.21.92 0 1.57-.39.65-.38 1.22-1.09Zm0-14.18h2.97v17.83h-1.82q-.58 0-.74-.54l-.25-1.19q-.75.85-1.71 1.38-.97.53-2.25.53-1.01 0-1.85-.42-.84-.42-1.45-1.22-.6-.8-.93-1.97-.33-1.18-.33-2.69 0-1.37.37-2.54.37-1.18 1.07-2.04.69-.87 1.67-1.35.97-.49 2.18-.49 1.03 0 1.76.32.74.33 1.31.88v-6.49Z"/></svg>